<mxfile host="app.diagrams.net" agent="Mozilla/5.0 (Windows NT 10.0; Win64; x64) AppleWebKit/537.36 (KHTML, like Gecko) Chrome/138.0.0.0 Safari/537.36" version="28.0.4">
  <diagram name="Page-1" id="W9E73mP5vmv0ZmioaAif">
    <mxGraphModel dx="2233" dy="1484" grid="1" gridSize="10" guides="1" tooltips="1" connect="1" arrows="1" fold="1" page="1" pageScale="1" pageWidth="827" pageHeight="1169" math="0" shadow="0">
      <root>
        <mxCell id="0" />
        <mxCell id="1" parent="0" />
        <mxCell id="Iy7IYpFXtxdeY2Rwhx-M-1" value="ทบทวนสัญลักษณ์" style="swimlane;fontFamily=Sarabun;fontSource=https%3A%2F%2Ffonts.googleapis.com%2Fcss%3Ffamily%3DSarabun;" vertex="1" parent="1">
          <mxGeometry x="-720" y="20" width="640" height="290" as="geometry" />
        </mxCell>
        <mxCell id="Iy7IYpFXtxdeY2Rwhx-M-2" value="&lt;font data-font-src=&quot;https://fonts.googleapis.com/css?family=Sarabun&quot; face=&quot;Sarabun&quot;&gt;เริ่มต้น&lt;/font&gt;" style="ellipse;whiteSpace=wrap;html=1;" vertex="1" parent="Iy7IYpFXtxdeY2Rwhx-M-1">
          <mxGeometry x="20" y="40" width="130" height="30" as="geometry" />
        </mxCell>
        <mxCell id="Iy7IYpFXtxdeY2Rwhx-M-3" value="" style="endArrow=classic;html=1;rounded=0;" edge="1" parent="Iy7IYpFXtxdeY2Rwhx-M-1">
          <mxGeometry width="50" height="50" relative="1" as="geometry">
            <mxPoint x="84.5" y="70" as="sourcePoint" />
            <mxPoint x="84.5" y="120" as="targetPoint" />
          </mxGeometry>
        </mxCell>
        <mxCell id="Iy7IYpFXtxdeY2Rwhx-M-4" value="&lt;font face=&quot;Sarabun&quot;&gt;สิ้นสุด&lt;/font&gt;" style="ellipse;whiteSpace=wrap;html=1;" vertex="1" parent="Iy7IYpFXtxdeY2Rwhx-M-1">
          <mxGeometry x="150" y="90" width="130" height="30" as="geometry" />
        </mxCell>
        <mxCell id="Iy7IYpFXtxdeY2Rwhx-M-5" value="" style="endArrow=classic;html=1;rounded=0;" edge="1" parent="Iy7IYpFXtxdeY2Rwhx-M-1">
          <mxGeometry width="50" height="50" relative="1" as="geometry">
            <mxPoint x="214.5" y="40" as="sourcePoint" />
            <mxPoint x="214.5" y="90" as="targetPoint" />
          </mxGeometry>
        </mxCell>
        <mxCell id="Iy7IYpFXtxdeY2Rwhx-M-6" value="กระบวนการ" style="rounded=0;whiteSpace=wrap;html=1;fontFamily=Sarabun;fontSource=https%3A%2F%2Ffonts.googleapis.com%2Fcss%3Ffamily%3DSarabun;" vertex="1" parent="Iy7IYpFXtxdeY2Rwhx-M-1">
          <mxGeometry x="320" y="70" width="120" height="30" as="geometry" />
        </mxCell>
        <mxCell id="Iy7IYpFXtxdeY2Rwhx-M-7" value="" style="endArrow=classic;html=1;rounded=0;" edge="1" parent="Iy7IYpFXtxdeY2Rwhx-M-1">
          <mxGeometry width="50" height="50" relative="1" as="geometry">
            <mxPoint x="379" y="40" as="sourcePoint" />
            <mxPoint x="379.5" y="70" as="targetPoint" />
          </mxGeometry>
        </mxCell>
        <mxCell id="Iy7IYpFXtxdeY2Rwhx-M-8" value="" style="endArrow=classic;html=1;rounded=0;" edge="1" parent="Iy7IYpFXtxdeY2Rwhx-M-1">
          <mxGeometry width="50" height="50" relative="1" as="geometry">
            <mxPoint x="379.75" y="100" as="sourcePoint" />
            <mxPoint x="380.25" y="130" as="targetPoint" />
          </mxGeometry>
        </mxCell>
        <mxCell id="Iy7IYpFXtxdeY2Rwhx-M-9" value="ประโยคเงื่อนไข" style="rhombus;whiteSpace=wrap;html=1;fontFamily=Sarabun;fontSource=https%3A%2F%2Ffonts.googleapis.com%2Fcss%3Ffamily%3DSarabun;" vertex="1" parent="Iy7IYpFXtxdeY2Rwhx-M-1">
          <mxGeometry x="490" y="60" width="100" height="60" as="geometry" />
        </mxCell>
        <mxCell id="Iy7IYpFXtxdeY2Rwhx-M-10" value="" style="endArrow=classic;html=1;rounded=0;" edge="1" parent="Iy7IYpFXtxdeY2Rwhx-M-1">
          <mxGeometry width="50" height="50" relative="1" as="geometry">
            <mxPoint x="539.71" y="30" as="sourcePoint" />
            <mxPoint x="540.21" y="60" as="targetPoint" />
          </mxGeometry>
        </mxCell>
        <mxCell id="Iy7IYpFXtxdeY2Rwhx-M-11" value="" style="endArrow=classic;html=1;rounded=0;" edge="1" parent="Iy7IYpFXtxdeY2Rwhx-M-1">
          <mxGeometry width="50" height="50" relative="1" as="geometry">
            <mxPoint x="539.71" y="120" as="sourcePoint" />
            <mxPoint x="540" y="175" as="targetPoint" />
          </mxGeometry>
        </mxCell>
        <mxCell id="Iy7IYpFXtxdeY2Rwhx-M-12" value="จริง" style="edgeLabel;html=1;align=center;verticalAlign=middle;resizable=0;points=[];fontFamily=Sarabun;fontSource=https%3A%2F%2Ffonts.googleapis.com%2Fcss%3Ffamily%3DSarabun;" vertex="1" connectable="0" parent="Iy7IYpFXtxdeY2Rwhx-M-11">
          <mxGeometry x="-0.4142" y="-1" relative="1" as="geometry">
            <mxPoint as="offset" />
          </mxGeometry>
        </mxCell>
        <mxCell id="Iy7IYpFXtxdeY2Rwhx-M-13" value="" style="endArrow=classic;html=1;rounded=0;exitX=1;exitY=0.5;exitDx=0;exitDy=0;" edge="1" parent="Iy7IYpFXtxdeY2Rwhx-M-1" source="Iy7IYpFXtxdeY2Rwhx-M-9">
          <mxGeometry width="50" height="50" relative="1" as="geometry">
            <mxPoint x="620" y="95" as="sourcePoint" />
            <mxPoint x="610" y="175" as="targetPoint" />
            <Array as="points">
              <mxPoint x="610" y="90" />
            </Array>
          </mxGeometry>
        </mxCell>
        <mxCell id="Iy7IYpFXtxdeY2Rwhx-M-14" value="&lt;font data-font-src=&quot;https://fonts.googleapis.com/css?family=Sarabun&quot; face=&quot;Sarabun&quot;&gt;เท็จ&lt;/font&gt;" style="edgeLabel;html=1;align=center;verticalAlign=middle;resizable=0;points=[];" vertex="1" connectable="0" parent="Iy7IYpFXtxdeY2Rwhx-M-13">
          <mxGeometry x="-0.0019" y="-2" relative="1" as="geometry">
            <mxPoint as="offset" />
          </mxGeometry>
        </mxCell>
        <mxCell id="Iy7IYpFXtxdeY2Rwhx-M-15" value="&lt;font data-font-src=&quot;https://fonts.googleapis.com/css?family=Sarabun&quot; face=&quot;Sarabun&quot;&gt;ฟังก์ชัน/โมดูล&lt;/font&gt;" style="shape=process;whiteSpace=wrap;html=1;backgroundOutline=1;" vertex="1" parent="Iy7IYpFXtxdeY2Rwhx-M-1">
          <mxGeometry x="25" y="180" width="120" height="30" as="geometry" />
        </mxCell>
        <mxCell id="Iy7IYpFXtxdeY2Rwhx-M-16" value="" style="endArrow=classic;html=1;rounded=0;" edge="1" parent="Iy7IYpFXtxdeY2Rwhx-M-1">
          <mxGeometry width="50" height="50" relative="1" as="geometry">
            <mxPoint x="84.70999999999998" y="150" as="sourcePoint" />
            <mxPoint x="85.20999999999998" y="180" as="targetPoint" />
          </mxGeometry>
        </mxCell>
        <mxCell id="Iy7IYpFXtxdeY2Rwhx-M-17" value="" style="endArrow=classic;html=1;rounded=0;" edge="1" parent="Iy7IYpFXtxdeY2Rwhx-M-1">
          <mxGeometry width="50" height="50" relative="1" as="geometry">
            <mxPoint x="84.70999999999998" y="210" as="sourcePoint" />
            <mxPoint x="85.20999999999998" y="240" as="targetPoint" />
          </mxGeometry>
        </mxCell>
        <mxCell id="Iy7IYpFXtxdeY2Rwhx-M-18" value="" style="strokeWidth=2;html=1;shape=mxgraph.flowchart.start_2;whiteSpace=wrap;" vertex="1" parent="Iy7IYpFXtxdeY2Rwhx-M-1">
          <mxGeometry x="205" y="185" width="20" height="20" as="geometry" />
        </mxCell>
        <mxCell id="Iy7IYpFXtxdeY2Rwhx-M-19" value="" style="endArrow=classic;html=1;rounded=0;" edge="1" parent="Iy7IYpFXtxdeY2Rwhx-M-1">
          <mxGeometry width="50" height="50" relative="1" as="geometry">
            <mxPoint x="214.70999999999998" y="155" as="sourcePoint" />
            <mxPoint x="215.20999999999998" y="185" as="targetPoint" />
          </mxGeometry>
        </mxCell>
        <mxCell id="Iy7IYpFXtxdeY2Rwhx-M-20" value="" style="endArrow=classic;html=1;rounded=0;entryX=0;entryY=0.5;entryDx=0;entryDy=0;entryPerimeter=0;" edge="1" parent="Iy7IYpFXtxdeY2Rwhx-M-1" target="Iy7IYpFXtxdeY2Rwhx-M-18">
          <mxGeometry width="50" height="50" relative="1" as="geometry">
            <mxPoint x="189.99999999999997" y="155" as="sourcePoint" />
            <mxPoint x="190.49999999999997" y="185" as="targetPoint" />
            <Array as="points">
              <mxPoint x="190" y="180" />
            </Array>
          </mxGeometry>
        </mxCell>
        <mxCell id="Iy7IYpFXtxdeY2Rwhx-M-21" value="" style="endArrow=classic;html=1;rounded=0;entryX=1;entryY=0.5;entryDx=0;entryDy=0;entryPerimeter=0;" edge="1" parent="Iy7IYpFXtxdeY2Rwhx-M-1" target="Iy7IYpFXtxdeY2Rwhx-M-18">
          <mxGeometry width="50" height="50" relative="1" as="geometry">
            <mxPoint x="239.99999999999997" y="155" as="sourcePoint" />
            <mxPoint x="240.49999999999997" y="185" as="targetPoint" />
            <Array as="points">
              <mxPoint x="240" y="180" />
            </Array>
          </mxGeometry>
        </mxCell>
        <mxCell id="Iy7IYpFXtxdeY2Rwhx-M-22" value="" style="endArrow=classic;html=1;rounded=0;" edge="1" parent="Iy7IYpFXtxdeY2Rwhx-M-1">
          <mxGeometry width="50" height="50" relative="1" as="geometry">
            <mxPoint x="214.70999999999998" y="205" as="sourcePoint" />
            <mxPoint x="215.20999999999998" y="235" as="targetPoint" />
          </mxGeometry>
        </mxCell>
        <mxCell id="Iy7IYpFXtxdeY2Rwhx-M-23" value="&lt;font data-font-src=&quot;https://fonts.googleapis.com/css?family=Sarabun&quot; face=&quot;Sarabun&quot;&gt;ตัวเชื่อม&lt;/font&gt;" style="text;html=1;align=center;verticalAlign=middle;resizable=0;points=[];autosize=1;strokeColor=none;fillColor=none;" vertex="1" parent="Iy7IYpFXtxdeY2Rwhx-M-1">
          <mxGeometry x="220" y="190" width="60" height="30" as="geometry" />
        </mxCell>
        <mxCell id="Iy7IYpFXtxdeY2Rwhx-M-24" value="" style="endArrow=classic;html=1;rounded=0;" edge="1" parent="Iy7IYpFXtxdeY2Rwhx-M-1">
          <mxGeometry width="50" height="50" relative="1" as="geometry">
            <mxPoint x="353.71" y="165" as="sourcePoint" />
            <mxPoint x="354.21" y="195" as="targetPoint" />
          </mxGeometry>
        </mxCell>
        <mxCell id="Iy7IYpFXtxdeY2Rwhx-M-25" value="" style="verticalLabelPosition=bottom;verticalAlign=top;html=1;shape=offPageConnector;rounded=0;size=0.5;" vertex="1" parent="Iy7IYpFXtxdeY2Rwhx-M-1">
          <mxGeometry x="339" y="195" width="30" height="30" as="geometry" />
        </mxCell>
        <mxCell id="Iy7IYpFXtxdeY2Rwhx-M-26" value="" style="endArrow=classic;html=1;rounded=0;" edge="1" parent="Iy7IYpFXtxdeY2Rwhx-M-1">
          <mxGeometry width="50" height="50" relative="1" as="geometry">
            <mxPoint x="405.71" y="195" as="sourcePoint" />
            <mxPoint x="406.21" y="225" as="targetPoint" />
          </mxGeometry>
        </mxCell>
        <mxCell id="Iy7IYpFXtxdeY2Rwhx-M-27" value="" style="verticalLabelPosition=bottom;verticalAlign=top;html=1;shape=offPageConnector;rounded=0;size=0.5;" vertex="1" parent="Iy7IYpFXtxdeY2Rwhx-M-1">
          <mxGeometry x="391" y="165" width="30" height="30" as="geometry" />
        </mxCell>
        <mxCell id="Iy7IYpFXtxdeY2Rwhx-M-28" value="หน้าต่อไป" style="text;html=1;align=center;verticalAlign=middle;resizable=0;points=[];autosize=1;strokeColor=none;fillColor=none;fontFamily=Sarabun;fontSource=https%3A%2F%2Ffonts.googleapis.com%2Fcss%3Ffamily%3DSarabun;" vertex="1" parent="Iy7IYpFXtxdeY2Rwhx-M-1">
          <mxGeometry x="345" y="220" width="70" height="30" as="geometry" />
        </mxCell>
        <mxCell id="Iy7IYpFXtxdeY2Rwhx-M-29" value="ก" style="text;html=1;align=center;verticalAlign=middle;resizable=0;points=[];autosize=1;strokeColor=none;fillColor=none;fontFamily=Sarabun;fontSource=https%3A%2F%2Ffonts.googleapis.com%2Fcss%3Ffamily%3DSarabun;" vertex="1" parent="Iy7IYpFXtxdeY2Rwhx-M-1">
          <mxGeometry x="339" y="190" width="30" height="30" as="geometry" />
        </mxCell>
        <mxCell id="Iy7IYpFXtxdeY2Rwhx-M-30" value="ก" style="text;html=1;align=center;verticalAlign=middle;resizable=0;points=[];autosize=1;strokeColor=none;fillColor=none;fontFamily=Sarabun;fontSource=https%3A%2F%2Ffonts.googleapis.com%2Fcss%3Ffamily%3DSarabun;" vertex="1" parent="Iy7IYpFXtxdeY2Rwhx-M-1">
          <mxGeometry x="391" y="160" width="30" height="30" as="geometry" />
        </mxCell>
        <mxCell id="Iy7IYpFXtxdeY2Rwhx-M-31" value="แสดงผล/รับค่า" style="shape=parallelogram;perimeter=parallelogramPerimeter;whiteSpace=wrap;html=1;fixedSize=1;fontFamily=Sarabun;fontSource=https%3A%2F%2Ffonts.googleapis.com%2Fcss%3Ffamily%3DSarabun;" vertex="1" parent="Iy7IYpFXtxdeY2Rwhx-M-1">
          <mxGeometry x="450" y="210" width="120" height="30" as="geometry" />
        </mxCell>
        <mxCell id="Iy7IYpFXtxdeY2Rwhx-M-32" value="" style="endArrow=classic;html=1;rounded=0;" edge="1" parent="Iy7IYpFXtxdeY2Rwhx-M-1">
          <mxGeometry width="50" height="50" relative="1" as="geometry">
            <mxPoint x="509.71" y="180" as="sourcePoint" />
            <mxPoint x="510.21" y="210" as="targetPoint" />
          </mxGeometry>
        </mxCell>
        <mxCell id="Iy7IYpFXtxdeY2Rwhx-M-33" value="" style="endArrow=classic;html=1;rounded=0;" edge="1" parent="Iy7IYpFXtxdeY2Rwhx-M-1">
          <mxGeometry width="50" height="50" relative="1" as="geometry">
            <mxPoint x="509.71" y="240" as="sourcePoint" />
            <mxPoint x="510.21" y="270" as="targetPoint" />
          </mxGeometry>
        </mxCell>
        <mxCell id="Iy7IYpFXtxdeY2Rwhx-M-34" value="แก้ไขโจทย์ปัญหา" style="swimlane;fontFamily=Sarabun;fontSource=https%3A%2F%2Ffonts.googleapis.com%2Fcss%3Ffamily%3DSarabun;" vertex="1" parent="1">
          <mxGeometry x="-720" y="640" width="840" height="1680" as="geometry" />
        </mxCell>
        <mxCell id="Iy7IYpFXtxdeY2Rwhx-M-42" value="" style="edgeStyle=orthogonalEdgeStyle;rounded=0;orthogonalLoop=1;jettySize=auto;html=1;" edge="1" parent="Iy7IYpFXtxdeY2Rwhx-M-34" source="Iy7IYpFXtxdeY2Rwhx-M-35" target="Iy7IYpFXtxdeY2Rwhx-M-39">
          <mxGeometry relative="1" as="geometry" />
        </mxCell>
        <mxCell id="Iy7IYpFXtxdeY2Rwhx-M-35" value="&lt;font data-font-src=&quot;https://fonts.googleapis.com/css?family=Sarabun&quot; face=&quot;Sarabun&quot;&gt;เริ่มต้น&lt;/font&gt;" style="ellipse;whiteSpace=wrap;html=1;" vertex="1" parent="Iy7IYpFXtxdeY2Rwhx-M-34">
          <mxGeometry x="255" y="40" width="130" height="30" as="geometry" />
        </mxCell>
        <mxCell id="Iy7IYpFXtxdeY2Rwhx-M-36" value="&lt;font face=&quot;Sarabun&quot;&gt;สิ้นสุด&lt;/font&gt;" style="ellipse;whiteSpace=wrap;html=1;" vertex="1" parent="Iy7IYpFXtxdeY2Rwhx-M-34">
          <mxGeometry x="255" y="1620" width="130" height="30" as="geometry" />
        </mxCell>
        <mxCell id="Iy7IYpFXtxdeY2Rwhx-M-41" value="" style="edgeStyle=orthogonalEdgeStyle;rounded=0;orthogonalLoop=1;jettySize=auto;html=1;" edge="1" parent="Iy7IYpFXtxdeY2Rwhx-M-34" source="Iy7IYpFXtxdeY2Rwhx-M-39" target="Iy7IYpFXtxdeY2Rwhx-M-40">
          <mxGeometry relative="1" as="geometry" />
        </mxCell>
        <mxCell id="Iy7IYpFXtxdeY2Rwhx-M-39" value="Output สินค้า" style="shape=parallelogram;perimeter=parallelogramPerimeter;whiteSpace=wrap;html=1;fixedSize=1;" vertex="1" parent="Iy7IYpFXtxdeY2Rwhx-M-34">
          <mxGeometry x="260" y="120" width="120" height="60" as="geometry" />
        </mxCell>
        <mxCell id="Iy7IYpFXtxdeY2Rwhx-M-44" value="" style="edgeStyle=orthogonalEdgeStyle;rounded=0;orthogonalLoop=1;jettySize=auto;html=1;" edge="1" parent="Iy7IYpFXtxdeY2Rwhx-M-34" source="Iy7IYpFXtxdeY2Rwhx-M-40">
          <mxGeometry relative="1" as="geometry">
            <mxPoint x="320" y="370" as="targetPoint" />
          </mxGeometry>
        </mxCell>
        <mxCell id="Iy7IYpFXtxdeY2Rwhx-M-40" value="Input สินค้า" style="shape=parallelogram;perimeter=parallelogramPerimeter;whiteSpace=wrap;html=1;fixedSize=1;" vertex="1" parent="Iy7IYpFXtxdeY2Rwhx-M-34">
          <mxGeometry x="260" y="240" width="120" height="60" as="geometry" />
        </mxCell>
        <mxCell id="Iy7IYpFXtxdeY2Rwhx-M-48" value="" style="edgeStyle=orthogonalEdgeStyle;rounded=0;orthogonalLoop=1;jettySize=auto;html=1;" edge="1" parent="Iy7IYpFXtxdeY2Rwhx-M-34" source="Iy7IYpFXtxdeY2Rwhx-M-45" target="Iy7IYpFXtxdeY2Rwhx-M-47">
          <mxGeometry relative="1" as="geometry" />
        </mxCell>
        <mxCell id="Iy7IYpFXtxdeY2Rwhx-M-45" value="เพิ่มสินค้าลงในรายการรวม + รวมราคาสินค้า" style="rounded=0;whiteSpace=wrap;html=1;" vertex="1" parent="Iy7IYpFXtxdeY2Rwhx-M-34">
          <mxGeometry x="260" y="370" width="120" height="60" as="geometry" />
        </mxCell>
        <mxCell id="Iy7IYpFXtxdeY2Rwhx-M-52" style="edgeStyle=orthogonalEdgeStyle;rounded=0;orthogonalLoop=1;jettySize=auto;html=1;endArrow=none;endFill=0;" edge="1" parent="Iy7IYpFXtxdeY2Rwhx-M-34" source="Iy7IYpFXtxdeY2Rwhx-M-47">
          <mxGeometry relative="1" as="geometry">
            <mxPoint x="480" y="270" as="targetPoint" />
            <Array as="points">
              <mxPoint x="481" y="530" />
              <mxPoint x="481" y="270" />
            </Array>
          </mxGeometry>
        </mxCell>
        <mxCell id="Iy7IYpFXtxdeY2Rwhx-M-68" value="" style="edgeStyle=orthogonalEdgeStyle;rounded=0;orthogonalLoop=1;jettySize=auto;html=1;" edge="1" parent="Iy7IYpFXtxdeY2Rwhx-M-34" source="Iy7IYpFXtxdeY2Rwhx-M-47" target="Iy7IYpFXtxdeY2Rwhx-M-67">
          <mxGeometry relative="1" as="geometry" />
        </mxCell>
        <mxCell id="Iy7IYpFXtxdeY2Rwhx-M-70" value="ไม่" style="edgeLabel;html=1;align=center;verticalAlign=middle;resizable=0;points=[];" vertex="1" connectable="0" parent="Iy7IYpFXtxdeY2Rwhx-M-68">
          <mxGeometry x="-0.4421" y="-3" relative="1" as="geometry">
            <mxPoint as="offset" />
          </mxGeometry>
        </mxCell>
        <mxCell id="Iy7IYpFXtxdeY2Rwhx-M-47" value="เลือกสินค้าเพิ่มไหม?" style="rhombus;whiteSpace=wrap;html=1;" vertex="1" parent="Iy7IYpFXtxdeY2Rwhx-M-34">
          <mxGeometry x="230" y="490" width="180" height="80" as="geometry" />
        </mxCell>
        <mxCell id="Iy7IYpFXtxdeY2Rwhx-M-56" value="" style="edgeStyle=orthogonalEdgeStyle;rounded=0;orthogonalLoop=1;jettySize=auto;html=1;" edge="1" parent="Iy7IYpFXtxdeY2Rwhx-M-34" source="Iy7IYpFXtxdeY2Rwhx-M-49" target="Iy7IYpFXtxdeY2Rwhx-M-55">
          <mxGeometry relative="1" as="geometry" />
        </mxCell>
        <mxCell id="Iy7IYpFXtxdeY2Rwhx-M-49" value="Input เงิน" style="shape=parallelogram;perimeter=parallelogramPerimeter;whiteSpace=wrap;html=1;fixedSize=1;" vertex="1" parent="Iy7IYpFXtxdeY2Rwhx-M-34">
          <mxGeometry x="260" y="800" width="120" height="60" as="geometry" />
        </mxCell>
        <mxCell id="Iy7IYpFXtxdeY2Rwhx-M-63" style="edgeStyle=orthogonalEdgeStyle;rounded=0;orthogonalLoop=1;jettySize=auto;html=1;entryX=0.5;entryY=1;entryDx=0;entryDy=0;" edge="1" parent="Iy7IYpFXtxdeY2Rwhx-M-34" source="Iy7IYpFXtxdeY2Rwhx-M-55" target="Iy7IYpFXtxdeY2Rwhx-M-61">
          <mxGeometry relative="1" as="geometry">
            <mxPoint x="479.9999999999999" y="980" as="targetPoint" />
            <Array as="points">
              <mxPoint x="478" y="980" />
            </Array>
          </mxGeometry>
        </mxCell>
        <mxCell id="Iy7IYpFXtxdeY2Rwhx-M-65" value="ไม่" style="edgeLabel;html=1;align=center;verticalAlign=middle;resizable=0;points=[];" vertex="1" connectable="0" parent="Iy7IYpFXtxdeY2Rwhx-M-63">
          <mxGeometry x="-0.4264" relative="1" as="geometry">
            <mxPoint as="offset" />
          </mxGeometry>
        </mxCell>
        <mxCell id="Iy7IYpFXtxdeY2Rwhx-M-72" value="" style="edgeStyle=orthogonalEdgeStyle;rounded=0;orthogonalLoop=1;jettySize=auto;html=1;" edge="1" parent="Iy7IYpFXtxdeY2Rwhx-M-34" source="Iy7IYpFXtxdeY2Rwhx-M-55" target="Iy7IYpFXtxdeY2Rwhx-M-71">
          <mxGeometry relative="1" as="geometry" />
        </mxCell>
        <mxCell id="Iy7IYpFXtxdeY2Rwhx-M-73" value="ใช่" style="edgeLabel;html=1;align=center;verticalAlign=middle;resizable=0;points=[];" vertex="1" connectable="0" parent="Iy7IYpFXtxdeY2Rwhx-M-72">
          <mxGeometry x="-0.0603" y="-2" relative="1" as="geometry">
            <mxPoint as="offset" />
          </mxGeometry>
        </mxCell>
        <mxCell id="Iy7IYpFXtxdeY2Rwhx-M-55" value="จำนวนเงินพอหรือไม่?" style="rhombus;whiteSpace=wrap;html=1;" vertex="1" parent="Iy7IYpFXtxdeY2Rwhx-M-34">
          <mxGeometry x="245" y="940" width="150" height="80" as="geometry" />
        </mxCell>
        <mxCell id="Iy7IYpFXtxdeY2Rwhx-M-64" style="edgeStyle=orthogonalEdgeStyle;rounded=0;orthogonalLoop=1;jettySize=auto;html=1;entryX=1;entryY=0.5;entryDx=0;entryDy=0;" edge="1" parent="Iy7IYpFXtxdeY2Rwhx-M-34" source="Iy7IYpFXtxdeY2Rwhx-M-61" target="Iy7IYpFXtxdeY2Rwhx-M-49">
          <mxGeometry relative="1" as="geometry">
            <Array as="points">
              <mxPoint x="478" y="830" />
            </Array>
          </mxGeometry>
        </mxCell>
        <mxCell id="Iy7IYpFXtxdeY2Rwhx-M-61" value="&lt;font&gt;Output &quot;จำนวนเงินไม่พอ&lt;/font&gt;&lt;div&gt;&lt;font&gt;กรุณาใส่เงินเพิ่ม&quot;&lt;/font&gt;&lt;/div&gt;" style="shape=parallelogram;perimeter=parallelogramPerimeter;whiteSpace=wrap;html=1;fixedSize=1;" vertex="1" parent="Iy7IYpFXtxdeY2Rwhx-M-34">
          <mxGeometry x="395" y="870" width="165" height="60" as="geometry" />
        </mxCell>
        <mxCell id="Iy7IYpFXtxdeY2Rwhx-M-69" value="" style="edgeStyle=orthogonalEdgeStyle;rounded=0;orthogonalLoop=1;jettySize=auto;html=1;" edge="1" parent="Iy7IYpFXtxdeY2Rwhx-M-34" source="Iy7IYpFXtxdeY2Rwhx-M-67" target="Iy7IYpFXtxdeY2Rwhx-M-49">
          <mxGeometry relative="1" as="geometry" />
        </mxCell>
        <mxCell id="Iy7IYpFXtxdeY2Rwhx-M-67" value="&lt;span style=&quot;font-family: &amp;quot;gg sans&amp;quot;, &amp;quot;Noto Sans&amp;quot;, &amp;quot;Helvetica Neue&amp;quot;, Helvetica, Arial, sans-serif; text-align: left; white-space-collapse: break-spaces; background-color: oklab(0.219499 0.00211129 -0.00744916);&quot;&gt;&lt;font style=&quot;font-size: 11px; color: light-dark(rgb(0, 0, 0), rgb(255, 255, 255));&quot;&gt;แสดงรายการสินค้าที่เลือก &lt;/font&gt;&lt;/span&gt;&lt;div&gt;&lt;span style=&quot;font-family: &amp;quot;gg sans&amp;quot;, &amp;quot;Noto Sans&amp;quot;, &amp;quot;Helvetica Neue&amp;quot;, Helvetica, Arial, sans-serif; text-align: left; white-space-collapse: break-spaces; background-color: oklab(0.219499 0.00211129 -0.00744916);&quot;&gt;&lt;font style=&quot;font-size: 11px; color: light-dark(rgb(0, 0, 0), rgb(255, 255, 255));&quot;&gt;+ ราคารวมทั้งหมด&lt;/font&gt;&lt;/span&gt;&lt;/div&gt;" style="shape=parallelogram;perimeter=parallelogramPerimeter;whiteSpace=wrap;html=1;fixedSize=1;" vertex="1" parent="Iy7IYpFXtxdeY2Rwhx-M-34">
          <mxGeometry x="250" y="640" width="140" height="60" as="geometry" />
        </mxCell>
        <mxCell id="Iy7IYpFXtxdeY2Rwhx-M-75" value="" style="edgeStyle=orthogonalEdgeStyle;rounded=0;orthogonalLoop=1;jettySize=auto;html=1;" edge="1" parent="Iy7IYpFXtxdeY2Rwhx-M-34" source="Iy7IYpFXtxdeY2Rwhx-M-71" target="Iy7IYpFXtxdeY2Rwhx-M-74">
          <mxGeometry relative="1" as="geometry" />
        </mxCell>
        <mxCell id="Iy7IYpFXtxdeY2Rwhx-M-71" value="ออกสินค้า" style="rounded=0;whiteSpace=wrap;html=1;" vertex="1" parent="Iy7IYpFXtxdeY2Rwhx-M-34">
          <mxGeometry x="260" y="1084" width="120" height="60" as="geometry" />
        </mxCell>
        <mxCell id="Iy7IYpFXtxdeY2Rwhx-M-79" value="" style="edgeStyle=orthogonalEdgeStyle;rounded=0;orthogonalLoop=1;jettySize=auto;html=1;" edge="1" parent="Iy7IYpFXtxdeY2Rwhx-M-34" source="Iy7IYpFXtxdeY2Rwhx-M-74" target="Iy7IYpFXtxdeY2Rwhx-M-78">
          <mxGeometry relative="1" as="geometry" />
        </mxCell>
        <mxCell id="Iy7IYpFXtxdeY2Rwhx-M-74" value="คำนวนเงินคงเหลือ = จำนวนเงินที่มี - ราคาสินค้ารวม" style="rounded=0;whiteSpace=wrap;html=1;" vertex="1" parent="Iy7IYpFXtxdeY2Rwhx-M-34">
          <mxGeometry x="260" y="1200" width="120" height="60" as="geometry" />
        </mxCell>
        <mxCell id="Iy7IYpFXtxdeY2Rwhx-M-81" value="" style="edgeStyle=orthogonalEdgeStyle;rounded=0;orthogonalLoop=1;jettySize=auto;html=1;" edge="1" parent="Iy7IYpFXtxdeY2Rwhx-M-34" source="Iy7IYpFXtxdeY2Rwhx-M-78" target="Iy7IYpFXtxdeY2Rwhx-M-80">
          <mxGeometry relative="1" as="geometry" />
        </mxCell>
        <mxCell id="Iy7IYpFXtxdeY2Rwhx-M-78" value="แสดงจำนวนเงินที่เหลืออยู่" style="shape=parallelogram;perimeter=parallelogramPerimeter;whiteSpace=wrap;html=1;fixedSize=1;rounded=0;" vertex="1" parent="Iy7IYpFXtxdeY2Rwhx-M-34">
          <mxGeometry x="235" y="1340" width="170" height="60" as="geometry" />
        </mxCell>
        <mxCell id="Iy7IYpFXtxdeY2Rwhx-M-82" value="" style="edgeStyle=orthogonalEdgeStyle;rounded=0;orthogonalLoop=1;jettySize=auto;html=1;" edge="1" parent="Iy7IYpFXtxdeY2Rwhx-M-34" source="Iy7IYpFXtxdeY2Rwhx-M-80" target="Iy7IYpFXtxdeY2Rwhx-M-36">
          <mxGeometry relative="1" as="geometry" />
        </mxCell>
        <mxCell id="Iy7IYpFXtxdeY2Rwhx-M-80" value="ทอนเงิน" style="whiteSpace=wrap;html=1;rounded=0;" vertex="1" parent="Iy7IYpFXtxdeY2Rwhx-M-34">
          <mxGeometry x="260" y="1480" width="120" height="60" as="geometry" />
        </mxCell>
        <mxCell id="Iy7IYpFXtxdeY2Rwhx-M-37" value="&lt;font data-font-src=&quot;https://fonts.googleapis.com/css?family=Sarabun&quot; face=&quot;Sarabun&quot;&gt;โจทย์ปัญหา&lt;/font&gt;" style="swimlane;whiteSpace=wrap;html=1;" vertex="1" parent="1">
          <mxGeometry x="-720" y="320" width="640" height="240" as="geometry" />
        </mxCell>
        <mxCell id="Iy7IYpFXtxdeY2Rwhx-M-38" value="&lt;font data-font-src=&quot;https://fonts.googleapis.com/css?family=Sarabun&quot; face=&quot;Sarabun&quot; style=&quot;font-size: 14px;&quot;&gt;จงเขียน Flowchart เพื่อแสดงขั้นตอนการทำงาน ของเครื่องขายน้ำอัตโนมัติที่ชื่อว่า &quot;ตะพาบลอย&quot;&lt;br&gt;โดยจะต้องมีสินค้าดังนี้&lt;br&gt;&lt;u&gt;ประเภทน้ำ&lt;span style=&quot;white-space: pre;&quot;&gt;&#x9;&lt;/span&gt;&lt;span style=&quot;white-space: pre;&quot;&gt;&#x9;&lt;/span&gt;&lt;span style=&quot;white-space: pre;&quot;&gt;&#x9;&lt;/span&gt;&lt;span style=&quot;white-space: pre;&quot;&gt;&#x9;&lt;/span&gt;&lt;span style=&quot;white-space: pre;&quot;&gt;&#x9;&lt;/span&gt;&lt;span style=&quot;white-space: pre;&quot;&gt;&#x9;&lt;span style=&quot;white-space: pre;&quot;&gt;&#x9;&lt;/span&gt;ข&lt;/span&gt;นม&lt;/u&gt;&lt;br&gt;&lt;span style=&quot;white-space: pre;&quot;&gt;&#x9;&lt;/span&gt;- โค้ก กระป๋องละ 10 บาท&lt;span style=&quot;white-space: pre;&quot;&gt;&#x9;&lt;/span&gt;&lt;span style=&quot;white-space: pre;&quot;&gt;&#x9;&lt;/span&gt;&lt;span style=&quot;white-space: pre;&quot;&gt;&#x9;&lt;/span&gt;&lt;span style=&quot;white-space: pre;&quot;&gt;&#x9;&lt;/span&gt;- เมล็ดทานตะวัน 13 บาท&lt;br&gt;&lt;span style=&quot;white-space: pre;&quot;&gt;&#x9;&lt;/span&gt;- น้ำเขียว กระป๋องละ 12 บาท&lt;span style=&quot;white-space: pre;&quot;&gt;&#x9;&lt;/span&gt;&lt;span style=&quot;white-space: pre;&quot;&gt;&#x9;&lt;/span&gt;&lt;span style=&quot;white-space: pre;&quot;&gt;&#x9;&lt;/span&gt;- ถั่วแปบ 20 บาท&lt;br&gt;&lt;span style=&quot;white-space: pre;&quot;&gt;&#x9;&lt;/span&gt;- อเมริกาโน่ 30 บาท&lt;span style=&quot;white-space: pre;&quot;&gt;&#x9;&lt;/span&gt;&lt;span style=&quot;white-space: pre;&quot;&gt;&#x9;&lt;/span&gt;&lt;span style=&quot;white-space: pre;&quot;&gt;&#x9;&lt;/span&gt;&lt;span style=&quot;white-space: pre;&quot;&gt;&#x9;&lt;/span&gt;&lt;span style=&quot;white-space: pre;&quot;&gt;&#x9;&lt;/span&gt;- จิ้นส้มหมก 15 บาท&lt;br&gt;&lt;span style=&quot;white-space: pre;&quot;&gt;&#x9;&lt;/span&gt;- ลาเต้ หวานเจี๊ยบ 35 บาท&lt;span style=&quot;white-space: pre;&quot;&gt;&#x9;&lt;/span&gt;&lt;br&gt;&lt;br&gt;&lt;u&gt;สิ่งที่ระบบควรจะทำได้&lt;/u&gt;&lt;br&gt;&lt;span style=&quot;white-space: pre;&quot;&gt;&#x9;&lt;/span&gt;- ลูกค้าเลือกสินค้า, ระบบจะต้องรวมยอดขาย และรวมรายการสินค้าทั้งหมดที่ลูกค้าเลือก&lt;br&gt;&lt;span style=&quot;white-space: pre;&quot;&gt;&#x9;&lt;/span&gt;- สรุปยอดว่าเหลือเงินในตู้อีกเท่าไหร่ เหลือเหรียญอะไรบ้าง? ธนบัตรอะไรบ้าง? อย่างละเท่าไหร่?&lt;br&gt;&lt;br&gt;&lt;br&gt;&lt;/font&gt;" style="text;html=1;align=left;verticalAlign=middle;resizable=0;points=[];autosize=1;strokeColor=none;fillColor=none;fontSize=14;" vertex="1" parent="Iy7IYpFXtxdeY2Rwhx-M-37">
          <mxGeometry x="25" y="30" width="580" height="240" as="geometry" />
        </mxCell>
        <mxCell id="Iy7IYpFXtxdeY2Rwhx-M-54" value="" style="endArrow=classic;html=1;rounded=0;entryX=1;entryY=0.5;entryDx=0;entryDy=0;" edge="1" parent="1" target="Iy7IYpFXtxdeY2Rwhx-M-40">
          <mxGeometry width="50" height="50" relative="1" as="geometry">
            <mxPoint x="-240" y="910" as="sourcePoint" />
            <mxPoint x="-260" y="990" as="targetPoint" />
          </mxGeometry>
        </mxCell>
      </root>
    </mxGraphModel>
  </diagram>
</mxfile>
